<svg width="172" height="165" viewBox="0 0 172 165" fill="none" xmlns="http://www.w3.org/2000/svg">
<path d="M14.292 36.36C12.492 36.36 10.824 36.036 9.288 35.388C7.752 34.716 6.408 33.792 5.256 32.616C4.128 31.44 3.252 30.072 2.628 28.512C2.004 26.952 1.692 25.284 1.692 23.508C1.692 21.708 2.004 20.028 2.628 18.468C3.252 16.908 4.128 15.552 5.256 14.4C6.408 13.224 7.74 12.312 9.252 11.664C10.788 10.992 12.456 10.656 14.256 10.656C16.224 10.656 17.952 10.992 19.44 11.664C20.928 12.336 22.248 13.248 23.4 14.4L21.06 16.74C20.268 15.852 19.296 15.156 18.144 14.652C17.016 14.148 15.72 13.896 14.256 13.896C12.936 13.896 11.724 14.136 10.62 14.616C9.516 15.072 8.556 15.732 7.74 16.596C6.924 17.46 6.288 18.48 5.832 19.656C5.4 20.832 5.184 22.116 5.184 23.508C5.184 24.9 5.4 26.184 5.832 27.36C6.288 28.536 6.924 29.556 7.74 30.42C8.556 31.284 9.516 31.956 10.62 32.436C11.724 32.892 12.936 33.12 14.256 33.12C15.816 33.12 17.172 32.868 18.324 32.364C19.476 31.836 20.448 31.128 21.24 30.24L23.58 32.544C22.428 33.744 21.072 34.68 19.512 35.352C17.976 36.024 16.236 36.36 14.292 36.36ZM27.1972 36V18.9H30.4372V36H27.1972ZM28.8172 15.48C28.2172 15.48 27.7252 15.288 27.3412 14.904C26.9572 14.496 26.7652 13.992 26.7652 13.392C26.7652 12.816 26.9572 12.336 27.3412 11.952C27.7252 11.544 28.2172 11.34 28.8172 11.34C29.4172 11.34 29.9092 11.544 30.2932 11.952C30.6772 12.336 30.8692 12.816 30.8692 13.392C30.8692 13.992 30.6772 14.496 30.2932 14.904C29.9092 15.288 29.4172 15.48 28.8172 15.48ZM37.8399 36V11.736H41.0799V36H37.8399ZM33.6279 21.852V18.9H45.2919V21.852H33.6279ZM54.0818 36.144L46.6658 18.9H50.2658L55.7738 32.4H54.6218L60.4178 18.9H64.0178L56.0258 36.144H54.0818ZM49.1858 43.164L54.2258 32.832L56.0258 36.144L52.7858 43.164H49.1858ZM2.952 117V92.016H6.336V117H2.952ZM23.7533 117V107.028C23.7533 105.732 23.3453 104.664 22.5293 103.824C21.7133 102.984 20.6573 102.564 19.3613 102.564C18.4973 102.564 17.7293 102.756 17.0573 103.14C16.3853 103.524 15.8573 104.052 15.4733 104.724C15.0893 105.396 14.8973 106.164 14.8973 107.028L13.5653 106.272C13.5653 104.976 13.8533 103.824 14.4293 102.816C15.0053 101.808 15.8093 101.016 16.8413 100.44C17.8733 99.84 19.0373 99.54 20.3333 99.54C21.6293 99.54 22.7693 99.864 23.7533 100.512C24.7613 101.16 25.5533 102.012 26.1293 103.068C26.7053 104.1 26.9933 105.204 26.9933 106.38V117H23.7533ZM11.6572 117V99.9H14.8973V117H11.6572ZM42.8919 117.64C41.1852 117.64 39.5639 117.427 38.0279 117C36.5346 116.531 35.1479 115.891 33.8679 115.08C32.5879 114.227 31.4786 113.224 30.5399 112.072L34.2519 108.36C35.3612 109.725 36.6412 110.749 38.0919 111.432C39.5426 112.072 41.1639 112.392 42.9559 112.392C44.7479 112.392 46.1346 112.093 47.1159 111.496C48.0972 110.856 48.5879 109.981 48.5879 108.872C48.5879 107.763 48.1826 106.909 47.3719 106.312C46.6039 105.672 45.6012 105.16 44.3639 104.776C43.1266 104.349 41.8039 103.944 40.3959 103.56C39.0306 103.133 37.7292 102.6 36.4919 101.96C35.2546 101.32 34.2306 100.445 33.4199 99.336C32.6519 98.2267 32.2679 96.7547 32.2679 94.92C32.2679 93.0853 32.7159 91.5067 33.6119 90.184C34.5079 88.8187 35.7452 87.7733 37.3239 87.048C38.9452 86.3227 40.8866 85.96 43.1479 85.96C45.5372 85.96 47.6492 86.3867 49.4839 87.24C51.3612 88.0507 52.8972 89.288 54.0919 90.952L50.3799 94.664C49.5266 93.5547 48.4599 92.7013 47.1799 92.104C45.9426 91.5067 44.5346 91.208 42.9559 91.208C41.2919 91.208 40.0119 91.5067 39.1159 92.104C38.2626 92.6587 37.8359 93.448 37.8359 94.472C37.8359 95.496 38.2199 96.2853 38.9879 96.84C39.7559 97.3947 40.7586 97.864 41.9959 98.248C43.2759 98.632 44.5986 99.0373 45.9639 99.464C47.3292 99.848 48.6306 100.381 49.8679 101.064C51.1052 101.747 52.1079 102.664 52.8759 103.816C53.6866 104.968 54.0919 106.483 54.0919 108.36C54.0919 111.219 53.0679 113.48 51.0199 115.144C49.0146 116.808 46.3052 117.64 42.8919 117.64ZM60.6044 117V86.6H66.3644V117H60.6044ZM63.4844 80.52C62.4177 80.52 61.5431 80.1787 60.8604 79.496C60.1777 78.7707 59.8364 77.8747 59.8364 76.808C59.8364 75.784 60.1777 74.9307 60.8604 74.248C61.5431 73.5227 62.4177 73.16 63.4844 73.16C64.5511 73.16 65.4257 73.5227 66.1084 74.248C66.7911 74.9307 67.1324 75.784 67.1324 76.808C67.1324 77.8747 66.7911 78.7707 66.1084 79.496C65.4257 80.1787 64.5511 80.52 63.4844 80.52ZM87.4609 130.376C84.3462 130.376 81.5729 129.8 79.1409 128.648C76.7516 127.496 74.8316 125.875 73.3809 123.784L77.0929 120.008C78.3302 121.587 79.8022 122.781 81.5089 123.592C83.2156 124.445 85.2422 124.872 87.5889 124.872C90.7036 124.872 93.1569 124.04 94.9489 122.376C96.7836 120.755 97.7009 118.557 97.7009 115.784V108.232L98.7249 101.384L97.7009 94.6V86.6H103.461V115.784C103.461 118.685 102.778 121.224 101.413 123.4C100.09 125.576 98.2129 127.283 95.7809 128.52C93.3916 129.757 90.6182 130.376 87.4609 130.376ZM87.4609 116.488C84.6876 116.488 82.1916 115.827 79.9729 114.504C77.7969 113.181 76.0689 111.368 74.7889 109.064C73.5089 106.717 72.8689 104.093 72.8689 101.192C72.8689 98.2907 73.5089 95.7093 74.7889 93.448C76.0689 91.144 77.7969 89.3307 79.9729 88.008C82.1916 86.6427 84.6876 85.96 87.4609 85.96C89.8502 85.96 91.9622 86.4293 93.7969 87.368C95.6316 88.3067 97.0822 89.6293 98.1489 91.336C99.2582 93 99.8556 94.9627 99.9409 97.224V105.288C99.8129 107.507 99.1942 109.469 98.0849 111.176C97.0182 112.84 95.5676 114.141 93.7329 115.08C91.8982 116.019 89.8076 116.488 87.4609 116.488ZM88.6129 111.048C90.4902 111.048 92.1329 110.643 93.5409 109.832C94.9916 109.021 96.1009 107.891 96.8689 106.44C97.6369 104.947 98.0209 103.219 98.0209 101.256C98.0209 99.2933 97.6156 97.5867 96.8049 96.136C96.0369 94.6427 94.9489 93.4907 93.5409 92.68C92.1329 91.8267 90.4689 91.4 88.5489 91.4C86.6289 91.4 84.9436 91.8267 83.4929 92.68C82.0422 93.4907 80.8902 94.6427 80.0369 96.136C79.2262 97.5867 78.8209 99.272 78.8209 101.192C78.8209 103.112 79.2262 104.819 80.0369 106.312C80.8902 107.805 82.0422 108.979 83.4929 109.832C84.9862 110.643 86.6929 111.048 88.6129 111.048ZM133.419 117V99.272C133.419 96.968 132.694 95.0693 131.243 93.576C129.793 92.0827 127.915 91.336 125.611 91.336C124.075 91.336 122.71 91.6773 121.515 92.36C120.321 93.0427 119.382 93.9813 118.699 95.176C118.017 96.3707 117.675 97.736 117.675 99.272L115.307 97.928C115.307 95.624 115.819 93.576 116.843 91.784C117.867 89.992 119.297 88.584 121.131 87.56C122.966 86.4933 125.035 85.96 127.339 85.96C129.643 85.96 131.67 86.472 133.419 87.496C135.211 88.52 136.619 89.9493 137.643 91.784C138.667 93.6187 139.179 95.7307 139.179 98.12V117H133.419ZM111.915 117V71.304H117.675V117H111.915ZM147.758 117V92.736H150.998V117H147.758ZM143.546 102.852V99.9H155.21V102.852H143.546ZM163.468 117.36C162.508 117.36 161.596 117.24 160.732 117C159.892 116.736 159.112 116.376 158.392 115.92C157.672 115.44 157.048 114.876 156.52 114.228L158.608 112.14C159.232 112.908 159.952 113.484 160.768 113.868C161.584 114.228 162.496 114.408 163.504 114.408C164.512 114.408 165.292 114.24 165.844 113.904C166.396 113.544 166.672 113.052 166.672 112.428C166.672 111.804 166.444 111.324 165.988 110.988C165.556 110.628 164.992 110.34 164.296 110.124C163.6 109.884 162.856 109.656 162.064 109.44C161.296 109.2 160.564 108.9 159.868 108.54C159.172 108.18 158.596 107.688 158.14 107.064C157.708 106.44 157.492 105.612 157.492 104.58C157.492 103.548 157.744 102.66 158.248 101.916C158.752 101.148 159.448 100.56 160.336 100.152C161.248 99.744 162.34 99.54 163.612 99.54C164.956 99.54 166.144 99.78 167.176 100.26C168.232 100.716 169.096 101.412 169.768 102.348L167.68 104.436C167.2 103.812 166.6 103.332 165.88 102.996C165.184 102.66 164.392 102.492 163.504 102.492C162.568 102.492 161.848 102.66 161.344 102.996C160.864 103.308 160.624 103.752 160.624 104.328C160.624 104.904 160.84 105.348 161.272 105.66C161.704 105.972 162.268 106.236 162.964 106.452C163.684 106.668 164.428 106.896 165.196 107.136C165.964 107.352 166.696 107.652 167.392 108.036C168.088 108.42 168.652 108.936 169.084 109.584C169.54 110.232 169.768 111.084 169.768 112.14C169.768 113.748 169.192 115.02 168.04 115.956C166.912 116.892 165.388 117.36 163.468 117.36Z" fill="black"/>
<g filter="url(#filter0_d_3_1775)">
<path d="M142.5 96.5C142.5 129.653 116.517 156.5 84.5 156.5C52.4832 156.5 26.5 129.653 26.5 96.5C26.5 63.3469 52.4832 36.5 84.5 36.5C116.517 36.5 142.5 63.3469 142.5 96.5Z" stroke="black"/>
</g>
<defs>
<filter id="filter0_d_3_1775" x="26" y="36" width="125" height="129" filterUnits="userSpaceOnUse" color-interpolation-filters="sRGB">
<feFlood flood-opacity="0" result="BackgroundImageFix"/>
<feColorMatrix in="SourceAlpha" type="matrix" values="0 0 0 0 0 0 0 0 0 0 0 0 0 0 0 0 0 0 127 0" result="hardAlpha"/>
<feMorphology radius="1" operator="dilate" in="SourceAlpha" result="effect1_dropShadow_3_1775"/>
<feOffset dx="4" dy="4"/>
<feGaussianBlur stdDeviation="1.5"/>
<feColorMatrix type="matrix" values="0 0 0 0 0 0 0 0 0 0 0 0 0 0 0 0 0 0 0.25 0"/>
<feBlend mode="normal" in2="BackgroundImageFix" result="effect1_dropShadow_3_1775"/>
<feBlend mode="normal" in="SourceGraphic" in2="effect1_dropShadow_3_1775" result="shape"/>
</filter>
</defs>
</svg>
