<svg width="60" height="41" viewBox="0 0 60 41" fill="none" xmlns="http://www.w3.org/2000/svg">
<path d="M1.23 37V26.59H2.22L6.63 33.835H5.955L10.365 26.59H11.355V37H9.945V29.065L10.275 29.155L6.795 34.87H5.805L2.325 29.155L2.64 29.065V37H1.23ZM15.913 37.06L12.823 29.875H14.323L16.618 35.5H16.138L18.553 29.875H20.053L16.723 37.06H15.913ZM13.873 39.985L15.973 35.68L16.723 37.06L15.373 39.985H13.873ZM24.6382 37V26.59H26.0482V37H24.6382ZM25.5982 32.425V31.135H31.0282V32.425H25.5982ZM25.5982 27.88V26.59H31.2832V27.88H25.5982ZM35.6313 37.15C34.9813 37.15 34.3913 36.99 33.8613 36.67C33.3313 36.34 32.9113 35.895 32.6013 35.335C32.3013 34.775 32.1513 34.145 32.1513 33.445C32.1513 32.745 32.3013 32.115 32.6013 31.555C32.9113 30.995 33.3263 30.55 33.8463 30.22C34.3763 29.89 34.9713 29.725 35.6313 29.725C36.1713 29.725 36.6513 29.84 37.0713 30.07C37.5013 30.29 37.8463 30.6 38.1063 31C38.3663 31.39 38.5113 31.845 38.5413 32.365V34.51C38.5113 35.02 38.3663 35.475 38.1063 35.875C37.8563 36.275 37.5163 36.59 37.0863 36.82C36.6663 37.04 36.1813 37.15 35.6313 37.15ZM35.8563 35.875C36.5263 35.875 37.0663 35.65 37.4763 35.2C37.8863 34.74 38.0913 34.155 38.0913 33.445C38.0913 32.955 37.9963 32.53 37.8063 32.17C37.6263 31.8 37.3663 31.515 37.0263 31.315C36.6863 31.105 36.2913 31 35.8413 31C35.3913 31 34.9913 31.105 34.6413 31.315C34.3013 31.525 34.0313 31.815 33.8313 32.185C33.6413 32.545 33.5463 32.96 33.5463 33.43C33.5463 33.91 33.6413 34.335 33.8313 34.705C34.0313 35.065 34.3063 35.35 34.6563 35.56C35.0063 35.77 35.4063 35.875 35.8563 35.875ZM38.0013 37V35.08L38.2563 33.34L38.0013 31.615V29.875H39.3663V37H38.0013ZM44.5868 37.15C43.8868 37.15 43.2518 36.985 42.6818 36.655C42.1218 36.325 41.6768 35.88 41.3468 35.32C41.0268 34.75 40.8668 34.12 40.8668 33.43C40.8668 32.73 41.0268 32.1 41.3468 31.54C41.6768 30.98 42.1218 30.54 42.6818 30.22C43.2518 29.89 43.8868 29.725 44.5868 29.725C45.1368 29.725 45.6468 29.83 46.1168 30.04C46.5868 30.24 46.9918 30.535 47.3318 30.925L46.4318 31.825C46.2118 31.565 45.9418 31.37 45.6218 31.24C45.3118 31.1 44.9668 31.03 44.5868 31.03C44.1368 31.03 43.7368 31.135 43.3868 31.345C43.0368 31.545 42.7618 31.825 42.5618 32.185C42.3618 32.545 42.2618 32.96 42.2618 33.43C42.2618 33.9 42.3618 34.315 42.5618 34.675C42.7618 35.035 43.0368 35.32 43.3868 35.53C43.7368 35.74 44.1368 35.845 44.5868 35.845C44.9668 35.845 45.3118 35.78 45.6218 35.65C45.9418 35.51 46.2168 35.31 46.4468 35.05L47.3318 35.95C47.0018 36.33 46.5968 36.625 46.1168 36.835C45.6468 37.045 45.1368 37.15 44.5868 37.15ZM49.6778 37V26.89H51.0278V37H49.6778ZM47.9228 31.105V29.875H52.7828V31.105H47.9228ZM56.2238 37.15C55.8238 37.15 55.4438 37.1 55.0838 37C54.7338 36.89 54.4088 36.74 54.1088 36.55C53.8088 36.35 53.5488 36.115 53.3288 35.845L54.1988 34.975C54.4588 35.295 54.7588 35.535 55.0988 35.695C55.4388 35.845 55.8188 35.92 56.2388 35.92C56.6588 35.92 56.9838 35.85 57.2138 35.71C57.4438 35.56 57.5588 35.355 57.5588 35.095C57.5588 34.835 57.4638 34.635 57.2738 34.495C57.0938 34.345 56.8588 34.225 56.5688 34.135C56.2788 34.035 55.9688 33.94 55.6388 33.85C55.3188 33.75 55.0138 33.625 54.7238 33.475C54.4338 33.325 54.1938 33.12 54.0038 32.86C53.8238 32.6 53.7338 32.255 53.7338 31.825C53.7338 31.395 53.8388 31.025 54.0488 30.715C54.2588 30.395 54.5488 30.15 54.9188 29.98C55.2988 29.81 55.7538 29.725 56.2838 29.725C56.8438 29.725 57.3388 29.825 57.7688 30.025C58.2088 30.215 58.5688 30.505 58.8488 30.895L57.9788 31.765C57.7788 31.505 57.5288 31.305 57.2288 31.165C56.9388 31.025 56.6088 30.955 56.2388 30.955C55.8488 30.955 55.5488 31.025 55.3388 31.165C55.1388 31.295 55.0388 31.48 55.0388 31.72C55.0388 31.96 55.1288 32.145 55.3088 32.275C55.4888 32.405 55.7238 32.515 56.0138 32.605C56.3138 32.695 56.6238 32.79 56.9438 32.89C57.2638 32.98 57.5688 33.105 57.8588 33.265C58.1488 33.425 58.3838 33.64 58.5638 33.91C58.7538 34.18 58.8488 34.535 58.8488 34.975C58.8488 35.645 58.6088 36.175 58.1288 36.565C57.6588 36.955 57.0238 37.15 56.2238 37.15Z" fill="#323232"/>
<path d="M19 12.4583H28.5833V22.0417H19V12.4583Z" fill="#323232"/>
<path d="M19 2C19 0.895429 19.8954 0 21 0H28.5833V9.58333H19V2Z" fill="#323232"/>
<path d="M32.4167 0H42V9.58333H32.4167V0Z" fill="#323232"/>
<path d="M32.4167 12.4583H42V20.0417C42 21.1462 41.1046 22.0417 40 22.0417H32.4167V12.4583Z" fill="#323232"/>
</svg>
