<svg width="40" height="41" viewBox="0 0 40 41" fill="none" xmlns="http://www.w3.org/2000/svg">
<path d="M1.23 37V26.59H2.64V37H1.23ZM7.95 37V26.59H9.36V37H7.95ZM2.19 32.26V30.97H8.295V32.26H2.19ZM14.8358 37.15C14.1358 37.15 13.5058 36.985 12.9458 36.655C12.3858 36.325 11.9408 35.88 11.6108 35.32C11.2808 34.75 11.1158 34.115 11.1158 33.415C11.1158 32.725 11.2808 32.105 11.6108 31.555C11.9408 30.995 12.3858 30.55 12.9458 30.22C13.5058 29.89 14.1358 29.725 14.8358 29.725C15.5258 29.725 16.1508 29.89 16.7108 30.22C17.2808 30.54 17.7308 30.98 18.0608 31.54C18.3908 32.1 18.5558 32.725 18.5558 33.415C18.5558 34.115 18.3908 34.75 18.0608 35.32C17.7308 35.88 17.2808 36.325 16.7108 36.655C16.1508 36.985 15.5258 37.15 14.8358 37.15ZM14.8358 35.845C15.2858 35.845 15.6858 35.74 16.0358 35.53C16.3858 35.32 16.6608 35.035 16.8608 34.675C17.0608 34.305 17.1608 33.885 17.1608 33.415C17.1608 32.955 17.0558 32.545 16.8458 32.185C16.6458 31.825 16.3708 31.545 16.0208 31.345C15.6808 31.135 15.2858 31.03 14.8358 31.03C14.3858 31.03 13.9858 31.135 13.6358 31.345C13.2858 31.545 13.0108 31.825 12.8108 32.185C12.6108 32.545 12.5108 32.955 12.5108 33.415C12.5108 33.885 12.6108 34.305 12.8108 34.675C13.0108 35.035 13.2858 35.32 13.6358 35.53C13.9858 35.74 14.3858 35.845 14.8358 35.845ZM20.0769 37V29.875H21.4269V37H20.0769ZM24.8919 37V32.695C24.8919 32.165 24.7269 31.75 24.3969 31.45C24.0769 31.14 23.6719 30.985 23.1819 30.985C22.8519 30.985 22.5569 31.055 22.2969 31.195C22.0369 31.335 21.8269 31.53 21.6669 31.78C21.5069 32.03 21.4269 32.33 21.4269 32.68L20.8719 32.41C20.8719 31.87 20.9869 31.4 21.2169 31C21.4569 30.6 21.7819 30.29 22.1919 30.07C22.6019 29.84 23.0619 29.725 23.5719 29.725C24.0719 29.725 24.5219 29.835 24.9219 30.055C25.3319 30.275 25.6519 30.585 25.8819 30.985C26.1219 31.385 26.2419 31.86 26.2419 32.41V37H24.8919ZM29.7069 37V32.695C29.7069 32.165 29.5419 31.75 29.2119 31.45C28.8919 31.14 28.4919 30.985 28.0119 30.985C27.6819 30.985 27.3819 31.055 27.1119 31.195C26.8519 31.335 26.6419 31.53 26.4819 31.78C26.3219 32.03 26.2419 32.33 26.2419 32.68L25.4769 32.41C25.5069 31.86 25.6519 31.39 25.9119 31C26.1819 30.6 26.5269 30.29 26.9469 30.07C27.3669 29.84 27.8269 29.725 28.3269 29.725C28.8469 29.725 29.3119 29.835 29.7219 30.055C30.1319 30.275 30.4569 30.585 30.6969 30.985C30.9469 31.385 31.0719 31.865 31.0719 32.425V37H29.7069ZM36.2089 37.15C35.4989 37.15 34.8589 36.99 34.2889 36.67C33.7189 36.34 33.2689 35.895 32.9389 35.335C32.6089 34.775 32.4439 34.14 32.4439 33.43C32.4439 32.73 32.6039 32.1 32.9239 31.54C33.2539 30.98 33.6939 30.54 34.2439 30.22C34.8039 29.89 35.4289 29.725 36.1189 29.725C36.7789 29.725 37.3589 29.875 37.8589 30.175C38.3689 30.475 38.7639 30.89 39.0439 31.42C39.3339 31.95 39.4789 32.55 39.4789 33.22C39.4789 33.32 39.4739 33.43 39.4639 33.55C39.4539 33.66 39.4339 33.79 39.4039 33.94H33.3889V32.815H38.6839L38.1889 33.25C38.1889 32.77 38.1039 32.365 37.9339 32.035C37.7639 31.695 37.5239 31.435 37.2139 31.255C36.9039 31.065 36.5289 30.97 36.0889 30.97C35.6289 30.97 35.2239 31.07 34.8739 31.27C34.5239 31.47 34.2539 31.75 34.0639 32.11C33.8739 32.47 33.7789 32.895 33.7789 33.385C33.7789 33.885 33.8789 34.325 34.0789 34.705C34.2789 35.075 34.5639 35.365 34.9339 35.575C35.3039 35.775 35.7289 35.875 36.2089 35.875C36.6089 35.875 36.9739 35.805 37.3039 35.665C37.6439 35.525 37.9339 35.315 38.1739 35.035L39.0439 35.92C38.7039 36.32 38.2839 36.625 37.7839 36.835C37.2939 37.045 36.7689 37.15 36.2089 37.15Z" fill="#323232"/>
<path d="M11 7.8303L21 0L31 7.8303V15H11V7.8303Z" fill="#323232"/>
<rect x="11" y="14" width="7" height="8" fill="#323232"/>
<rect x="24" y="14" width="7" height="8" fill="#323232"/>
</svg>
